# xmcd
#
# Track frame offsets: 
#        150
#        15095
#        31585
#        46585
#        61002
#        76325
#        89537
#        107012
#        123292
#        144472
#        162937
#        179040
#        190234
#        208727
#        222484
#        240997
#        258227
#
# Disc length: 3740 seconds
#
# Revision: 7
# Processed by: cddbd v1.5.2PL0 Copyright (c) Steve Scherf et al.
# Submitted via: ExactAudioCopy v1.0b3
#
DISCID=d70e9a11
DTITLE=Various Artist - CMT 99
DYEAR=1999
DGENRE=Country
TTITLE0=Joe Dee Messina - Bye Bye
TTITLE1=Brooks and Dunn - How Long Gone
TTITLE2=LeAnn Rimes - The Light In Your Eyes
TTITLE3=Deana Carter - Did I Shave My Legs For This 
TTITLE4=Jason McCoy - Born Again In Dixieland
TTITLE5=Pam Tillis - I Said A Prayer
TTITLE6=Dixie Chicks - I Can Love You Better
TTITLE7=Terri Clark - Now That I Found You
TTITLE8=Tim McGraw - One Of These Days
TTITLE9=Leahy - The Call To Dance
TTITLE10=The Rankins - Movin' On
TTITLE11=Julian Austin - Little Ol' Kisses
TTITLE12=Diamond Rio - How Your Love Makes Me Feel
TTITLE13=Mindy McCready - The Other Side Of This Kiss 
TTITLE14=Patty Loveless - You Don't Seem To Miss Me
TTITLE15=Jim Brickman and Michelle Wright - Your Love
TTITLE16=Alan Jackson - Who's Cheatin' Who (Extended Remix)
EXTD=YEAR: 1999
EXTT0=
EXTT1=
EXTT2=
EXTT3=
EXTT4=
EXTT5=
EXTT6=
EXTT7=
EXTT8=
EXTT9=
EXTT10=
EXTT11=
EXTT12=
EXTT13=
EXTT14=
EXTT15=
EXTT16=
PLAYORDER=
